<mxfile host="app.diagrams.net" modified="2023-09-24T11:53:11.967Z" agent="Mozilla/5.0 (Windows NT 10.0; Win64; x64) AppleWebKit/537.36 (KHTML, like Gecko) Chrome/116.0.0.0 Safari/537.36" version="21.3.2" etag="ATvGVAPFUn2uh3HgJ6oK" type="github">
  <diagram name="第 1 页" id="yy2AwVOhNC-bhGwhSpmx">
    <mxGraphModel>
      <root>
        <mxCell id="0" />
        <mxCell id="1" parent="0" />
      </root>
    </mxGraphModel>
  </diagram>
</mxfile>
